<?xml version="1.0" standalone="no"?>
<!DOCTYPE svg PUBLIC "-//W3C//DTD SVG 20010904//EN"
 "http://www.w3.org/TR/2001/REC-SVG-20010904/DTD/svg10.dtd">
<svg version="1.0" xmlns="http://www.w3.org/2000/svg"
 width="500.000000pt" height="500.000000pt" viewBox="0 0 500.000000 500.000000"
 preserveAspectRatio="xMidYMid meet">

<g transform="translate(0.000000,500.000000) scale(0.100000,-0.100000)"
fill="#000000" stroke="none">
<path d="M2392 3873 c-55 -164 -138 -410 -185 -548 -100 -296 -157 -472 -157
-490 0 -7 23 -29 50 -49 l50 -36 11 27 c6 16 82 239 169 496 87 258 161 471
164 475 9 8 5 17 86 -227 41 -124 81 -230 88 -238 15 -15 118 -18 126 -4 6 9
-280 870 -293 884 -4 4 -53 -126 -109 -290z"/>
<path d="M2320 4098 c-285 -47 -501 -153 -696 -341 -108 -104 -195 -221 -257
-349 -70 -143 -70 -138 5 -138 35 0 68 4 73 8 6 4 22 33 38 65 57 121 163 261
264 350 153 134 322 216 537 260 l109 22 18 55 c10 30 19 61 19 68 0 14 -29
14 -110 0z"/>
<path d="M2568 4105 c-3 -3 4 -34 15 -69 l21 -64 66 -11 c370 -61 665 -275
831 -603 43 -85 53 -92 130 -86 53 4 53 10 4 114 -76 164 -235 360 -378 467
-183 136 -346 205 -577 243 -96 15 -105 16 -112 9z"/>
<path d="M1210 3238 c0 -4 66 -55 148 -112 139 -100 236 -171 532 -390 347
-257 403 -298 417 -303 11 -5 13 8 11 73 l-3 78 -161 121 c-88 66 -246 183
-350 260 l-189 140 244 5 244 5 20 58 c10 32 17 60 15 62 -7 7 -928 10 -928 3z"/>
<path d="M2493 3242 l-142 -3 -17 -52 c-9 -28 -19 -58 -21 -64 -4 -10 109 -13
528 -15 l533 -3 -179 -135 c-99 -74 -186 -140 -193 -145 -11 -9 -10 -21 5 -73
10 -34 21 -62 25 -62 5 0 61 39 127 88 65 48 192 141 282 208 90 66 203 149
252 183 48 35 87 66 87 69 0 7 -1004 10 -1287 4z"/>
<path d="M1252 3088 c-26 -120 -35 -268 -22 -382 27 -255 104 -462 244 -651
59 -80 188 -215 205 -215 5 0 18 26 29 58 l19 57 -58 63 c-223 239 -344 589
-310 898 6 60 14 121 17 135 5 22 -1 30 -44 57 -27 18 -53 32 -59 32 -5 0 -15
-24 -21 -52z"/>
<path d="M3670 3114 c-19 -14 -41 -28 -48 -33 -10 -5 -9 -27 3 -106 20 -133
19 -210 -4 -347 -40 -233 -133 -420 -298 -603 -29 -32 -53 -66 -53 -75 0 -24
31 -110 39 -110 17 0 190 190 238 260 150 222 213 435 213 715 0 179 -22 326
-48 325 -4 -1 -23 -12 -42 -26z"/>
<path d="M2730 3074 c0 -8 75 -239 184 -569 132 -397 148 -447 144 -450 -2 -2
-37 21 -78 51 -338 246 -340 247 -365 234 -14 -7 -39 -25 -56 -40 l-32 -26
179 -132 c98 -72 248 -182 332 -244 84 -62 181 -134 214 -161 34 -26 62 -46
64 -44 2 1 -37 124 -86 272 -95 289 -344 1055 -355 1093 -6 20 -12 22 -76 22
-38 0 -69 -3 -69 -6z"/>
<path d="M2290 3053 c0 -11 11 -23 29 -30 l29 -11 4 -627 c1 -345 1 -647 -1
-671 -3 -39 -6 -44 -27 -44 -59 0 -236 60 -357 122 l-59 29 -49 -33 c-27 -18
-49 -38 -49 -44 0 -26 224 -134 359 -173 149 -43 355 -56 516 -31 150 23 373
110 474 184 l32 24 -49 36 c-28 20 -55 36 -62 36 -7 0 -33 -12 -57 -26 -60
-35 -174 -81 -247 -100 -74 -19 -227 -44 -277 -44 -34 0 -37 3 -43 33 -3 17
-5 244 -5 503 l0 471 68 6 c79 7 135 27 173 64 67 64 76 192 20 262 -56 69
-78 76 -259 79 -154 4 -163 3 -163 -15z m311 -81 c50 -56 48 -161 -4 -210 -40
-37 -127 -57 -142 -31 -4 6 -4 71 0 146 l8 135 55 -4 c46 -4 60 -10 83 -36z"/>
<path d="M1502 2751 c-8 -4 -12 -17 -10 -27 3 -16 14 -20 61 -22 31 -2 57 -5
57 -7 0 -19 -116 -264 -132 -277 -33 -29 -16 -48 42 -48 56 0 77 21 44 44 -17
13 -17 15 -1 40 15 22 25 26 62 26 37 0 47 -5 61 -25 15 -23 15 -27 2 -43 -27
-30 -11 -42 56 -42 77 0 97 15 61 45 -22 17 -135 248 -135 275 0 5 24 10 53
12 48 3 52 5 52 28 l0 25 -130 3 c-71 1 -136 -2 -143 -7z m148 -213 c0 -19
-16 -23 -38 -10 -10 7 -10 15 -2 38 11 28 12 28 26 10 8 -11 14 -28 14 -38z"/>
<path d="M3294 2736 c-51 -14 -76 -32 -103 -76 -38 -63 -23 -145 36 -189 l28
-20 -27 -1 c-15 0 -30 5 -33 10 -3 6 -13 10 -21 10 -12 0 -14 -11 -12 -47 l3
-48 79 -3 79 -3 -6 47 c-3 31 -12 53 -25 63 -29 23 -42 54 -42 100 0 55 16 86
56 107 41 22 75 10 104 -38 34 -56 22 -126 -29 -172 -15 -14 -21 -31 -21 -63
l0 -43 68 0 c79 0 92 9 92 62 0 37 -20 53 -35 28 -3 -5 -17 -10 -29 -10 -23 0
-22 1 9 35 111 117 -11 296 -171 251z"/>
<path d="M2709 2613 c-57 -43 -130 -96 -161 -117 l-58 -39 0 -84 c0 -65 3 -82
13 -77 14 9 228 166 305 225 40 30 52 44 47 57 -4 9 -11 31 -15 48 -17 71 -17
71 -131 -13z"/>
<path d="M1855 2258 c-65 -200 -133 -407 -151 -461 -23 -70 -28 -97 -19 -93 8
3 92 63 187 134 95 70 235 172 311 226 l137 99 0 84 0 84 -27 -20 c-16 -10
-102 -73 -193 -139 -91 -66 -166 -119 -168 -117 -3 3 35 122 124 389 18 55 31
103 28 107 -5 9 -95 69 -104 69 -3 0 -60 -163 -125 -362z"/>
<path d="M2080 662 c-46 -23 -74 -67 -95 -152 -9 -38 -21 -70 -25 -70 -4 0
-20 34 -36 77 -16 42 -33 76 -39 77 -5 1 -22 -34 -38 -76 -16 -43 -33 -78 -37
-78 -13 0 -42 97 -38 127 3 28 2 28 -52 28 -48 0 -55 -2 -55 -20 0 -13 6 -19
18 -18 12 0 16 -4 13 -13 -7 -19 52 -177 70 -187 8 -4 14 -19 14 -32 0 -28 15
-41 27 -23 15 24 31 80 27 92 -5 14 21 82 35 90 10 7 65 -127 66 -161 1 -12 4
-25 8 -29 11 -12 37 17 37 42 0 13 6 38 14 56 23 56 36 103 36 134 0 43 30 92
70 112 33 16 43 33 23 39 -4 2 -24 -5 -43 -15z"/>
<path d="M634 649 c-39 -11 -54 -44 -54 -120 l0 -60 -62 3 -63 3 -3 39 c-2 21
1 43 7 49 22 22 10 32 -39 34 -38 2 -50 -1 -50 -12 0 -8 7 -15 15 -15 23 0 22
-228 -1 -276 -9 -19 -20 -34 -25 -34 -5 0 -9 -7 -9 -15 0 -9 10 -15 26 -15 62
0 81 36 79 153 -1 62 6 84 18 54 3 -7 23 -13 47 -14 33 -2 41 1 36 12 -3 9 1
15 9 15 22 0 21 -108 0 -116 -8 -4 -15 -13 -15 -21 0 -12 17 -14 98 -11 l97 3
5 45 5 45 43 3 c45 3 72 -10 72 -35 0 -13 -3 -13 -16 -2 -14 11 -15 9 -12 -17
l3 -29 109 -3 c133 -3 142 -1 121 31 -11 18 -14 47 -12 125 2 56 5 103 7 105
3 2 20 0 38 -5 31 -8 33 -11 30 -50 -3 -36 -15 -53 -46 -64 -1 0 9 -22 23 -48
26 -50 32 -71 15 -61 -5 3 -10 0 -10 -8 0 -21 28 -26 185 -33 172 -8 201 0
234 69 34 70 10 161 -54 203 -29 19 -164 32 -210 20 -28 -7 -29 -33 -1 -28 15
3 16 -9 14 -115 -3 -112 -4 -118 -25 -121 -25 -4 -56 26 -84 81 -19 36 -19 37
0 37 29 0 47 27 33 51 -7 10 -12 28 -12 39 0 35 -46 55 -132 57 -77 1 -88 -3
-68 -23 7 -7 10 -56 8 -125 -3 -101 -5 -114 -21 -117 -31 -6 -54 25 -108 149
-28 65 -55 119 -59 119 -4 0 -13 -15 -21 -32 -7 -18 -20 -44 -28 -57 -9 -14
-27 -56 -41 -95 -27 -72 -46 -94 -74 -83 -14 5 -16 26 -16 140 l0 134 26 12
c14 6 24 17 22 23 -6 16 -18 18 -54 7z m801 -111 c48 -24 55 -33 55 -74 0 -77
-42 -124 -110 -124 l-30 0 0 116 c0 131 -4 127 85 82z m-607 -75 c6 -20 9 -40
6 -45 -7 -11 -51 -10 -59 1 -6 10 25 81 35 81 4 0 12 -16 18 -37z"/>
<path d="M3030 630 c-13 -9 -13 -11 0 -20 8 -5 23 -10 33 -10 9 0 23 -11 29
-25 6 -14 15 -25 20 -25 13 0 9 -37 -7 -77 -8 -19 -17 -55 -19 -79 -2 -24 -9
-51 -16 -59 -23 -28 3 -40 47 -22 21 9 32 16 26 16 -14 1 -16 82 -4 136 7 29
8 28 49 -45 23 -41 42 -85 42 -97 0 -34 27 -28 35 8 4 17 13 33 20 36 8 2 11
11 8 18 -5 15 36 95 49 95 4 0 8 -18 8 -39 0 -22 8 -66 19 -100 10 -33 16 -63
12 -66 -13 -14 46 -45 87 -45 51 0 55 17 9 45 -17 11 -37 32 -44 45 -15 32
-45 218 -38 239 6 20 -9 46 -23 37 -5 -3 -31 -44 -58 -91 -27 -46 -52 -85 -55
-85 -3 0 -25 36 -49 81 -45 83 -88 129 -120 129 -10 0 -24 2 -32 5 -7 3 -20 0
-28 -5z"/>
<path d="M2145 581 c-61 -37 -80 -90 -63 -174 17 -81 41 -100 126 -105 80 -4
136 19 138 55 1 13 7 29 13 37 20 24 16 115 -6 145 -43 58 -147 80 -208 42z
m138 -49 c22 -22 27 -38 27 -76 0 -74 -30 -115 -83 -116 -67 0 -103 52 -92
134 9 67 27 86 80 86 32 0 47 -6 68 -28z"/>
<path d="M2410 592 c0 -6 5 -12 12 -14 15 -5 14 -231 -1 -236 -29 -10 -5 -22
41 -22 40 0 49 3 40 12 -8 8 -12 50 -12 125 0 113 0 113 24 113 30 0 56 -24
56 -52 0 -11 -13 -32 -29 -48 -17 -15 -26 -31 -21 -36 12 -13 61 -104 56 -104
-2 0 -12 7 -21 16 -9 9 -19 13 -23 9 -4 -4 4 -15 17 -26 20 -16 40 -19 137
-19 72 0 114 4 114 10 0 6 -7 13 -15 16 -12 5 -15 29 -15 125 0 73 4 119 10
119 6 0 10 4 10 8 0 5 -23 8 -52 8 -36 -1 -54 -6 -62 -18 -6 -9 -6 -21 -2 -25
5 -4 11 -2 13 5 3 6 9 12 14 12 6 0 8 -48 7 -117 -3 -118 -3 -118 -28 -118
-17 0 -35 14 -62 50 -21 28 -38 54 -38 58 0 4 14 13 31 19 26 9 30 14 24 37
-11 48 -27 80 -43 86 -31 13 -182 19 -182 7z"/>
<path d="M2869 591 c-1 -3 -1 -10 0 -15 1 -4 -14 -28 -34 -51 -19 -24 -35 -48
-35 -53 0 -6 -6 -12 -12 -14 -9 -3 2 -25 30 -61 23 -31 43 -60 43 -64 1 -13
43 -32 72 -33 31 0 38 25 10 35 -20 6 -103 116 -103 136 0 7 23 34 50 60 28
26 50 52 50 58 0 11 -69 13 -71 2z"/>
<path d="M3532 580 c-43 -26 -76 -99 -68 -146 4 -18 18 -47 31 -63 14 -16 25
-36 25 -44 0 -19 30 -27 100 -27 64 0 125 27 125 56 1 11 7 38 13 62 21 71 -7
136 -75 171 -35 18 -114 13 -151 -9z m151 -42 c12 -15 17 -38 17 -85 0 -55 -4
-67 -25 -88 -27 -28 -79 -33 -107 -11 -47 35 -57 127 -22 182 25 38 104 39
137 2z"/>
<path d="M3791 587 c-17 -21 -5 -43 15 -26 12 10 14 -6 14 -104 0 -100 -2
-117 -17 -126 -14 -8 -15 -12 -6 -22 9 -9 36 -10 115 -2 60 5 162 6 243 1 158
-8 457 -4 475 7 8 5 10 20 5 49 -4 22 -8 79 -9 126 -1 47 -3 91 -4 98 -2 10
-27 12 -104 10 -86 -3 -102 -5 -98 -18 3 -8 5 -49 5 -90 0 -66 -3 -78 -25
-101 -33 -35 -62 -49 -99 -49 l-29 0 0 115 c0 110 1 116 19 110 14 -5 19 -2
19 14 0 18 -6 20 -55 20 -30 -1 -55 -5 -55 -10 0 -5 5 -9 10 -9 6 0 10 -47 10
-120 0 -118 0 -120 -24 -126 -13 -3 -34 -1 -45 6 -19 10 -21 19 -21 119 0 59
3 111 7 114 3 4 12 2 20 -5 10 -8 17 -8 26 1 18 18 -9 31 -68 31 -39 0 -53 -4
-63 -20 -7 -12 -8 -20 -2 -20 5 0 10 5 10 10 0 6 5 10 10 10 7 0 10 -42 8
-117 l-3 -118 -38 -3 c-36 -3 -38 -2 -28 17 17 30 13 69 -8 90 -17 17 -18 24
-9 49 14 35 4 77 -19 87 -10 4 -52 9 -93 12 -61 5 -78 3 -89 -10z m149 -41
c11 -31 2 -64 -19 -71 -20 -6 -24 -33 -8 -52 15 -20 29 -15 22 7 -7 24 10 27
19 4 18 -46 -8 -94 -51 -94 -23 0 -23 1 -23 115 l0 115 25 0 c18 0 28 -7 35
-24z m659 15 c12 -8 12 -15 0 -48 -14 -35 -18 -38 -54 -38 l-40 0 -3 48 -3 47
43 0 c24 0 49 -4 57 -9z m-16 -128 c8 -10 18 -30 22 -45 8 -32 -19 -51 -68
-46 -29 3 -32 6 -35 42 -2 21 -1 44 2 52 8 20 60 17 79 -3z m-133 -57 c0 -21
-6 -36 -15 -40 -16 -6 -21 27 -9 58 11 28 24 17 24 -18z"/>
<path d="M4540 546 c0 -2 11 -6 25 -8 13 -3 22 -1 19 3 -5 9 -44 13 -44 5z"/>
<path d="M4535 431 c-2 -5 4 -11 15 -14 11 -3 20 -2 20 3 0 12 -28 21 -35 11z"/>
<path d="M2820 340 c0 -5 5 -10 11 -10 5 0 7 5 4 10 -3 6 -8 10 -11 10 -2 0
-4 -4 -4 -10z"/>
</g>
</svg>
